<svg xmlns="http://www.w3.org/2000/svg" viewBox="0 0 960 640" width="960" height="640" role="img" aria-label="Placeholder illustration of a row of parked electric bikes">
  <!-- PLACEHOLDER ASSET — replace with client photography of the fleet. -->
  <defs>
    <linearGradient id="bwFleetBg" x1="0" y1="0" x2="0" y2="1">
      <stop offset="0%" stop-color="#141414"/>
      <stop offset="100%" stop-color="#000000"/>
    </linearGradient>
  </defs>
  <rect width="960" height="640" fill="url(#bwFleetBg)"/>
  <g opacity="0.9">
    <g transform="translate(70 190)" fill="none" stroke="#FFCC29" stroke-width="10" stroke-linecap="round">
      <circle cx="60" cy="240" r="56"/><circle cx="270" cy="240" r="56"/>
      <path d="M70 210h130l40-58h52"/><path d="M40 152h110"/>
    </g>
    <g transform="translate(330 190)" fill="none" stroke="#FFD75A" stroke-opacity="0.7" stroke-width="10" stroke-linecap="round">
      <circle cx="60" cy="240" r="56"/><circle cx="270" cy="240" r="56"/>
      <path d="M70 210h130l40-58h52"/><path d="M40 152h110"/>
    </g>
    <g transform="translate(590 190)" fill="none" stroke="#DA6220" stroke-opacity="0.55" stroke-width="10" stroke-linecap="round">
      <circle cx="60" cy="240" r="56"/><circle cx="270" cy="240" r="56"/>
      <path d="M70 210h130l40-58h52"/><path d="M40 152h110"/>
    </g>
  </g>
  <path d="M0 500h960" stroke="#FFFFFF" stroke-opacity="0.14" stroke-width="3"/>
</svg>
