<?xml version="1.0" encoding="UTF-8"?>
<!-- Battwheelz favicon: square crop of the badge logo (src/assets/brand/battwheelz-logo.svg).
     Regenerate by re-cropping that file, do not hand-edit the paths. -->
<svg xmlns="http://www.w3.org/2000/svg" xmlns:xlink="http://www.w3.org/1999/xlink" width="470" height="470" viewBox="0 68 470 470">
<path fill-rule="nonzero" fill="rgb(0%, 0%, 0%)" fill-opacity="1" d="M 440.230469 437.429688 L 1681.1875 434.894531 L 1779.460938 434.933594 C 1780.839844 434.933594 1782.207031 434.855469 1783.554688 434.683594 L 1883.484375 434.484375 C 1884.882812 437.382812 1886.28125 440.289062 1887.679688 443.183594 C 1895.917969 460.25 1904.4375 477.894531 1912.933594 495.289062 C 1921.210938 512.835938 1936.132812 523.292969 1952.917969 523.292969 C 1953.199219 523.292969 1953.46875 523.292969 1953.746094 523.28125 C 1965.082031 523.070312 1975.648438 517.949219 1982.757812 509.222656 C 1990.367188 499.863281 1993.332031 487.171875 1990.90625 474.378906 C 1990.207031 470.585938 1989.476562 466.839844 1988.769531 463.226562 C 1988.089844 459.78125 1987.410156 456.335938 1986.78125 452.871094 C 1986.75 452.738281 1986.730469 452.621094 1986.703125 452.492188 C 1981.886719 427.824219 1977.105469 403.148438 1972.320312 378.472656 C 1971.253906 372.921875 1970.175781 367.378906 1969.097656 361.828125 C 1970.652344 362.1875 1972.203125 362.554688 1973.75 362.914062 C 1988.828125 366.441406 2003.90625 369.964844 2018.96875 373.519531 C 2019.007812 373.53125 2019.035156 373.539062 2019.066406 373.550781 C 2021.992188 374.230469 2024.96875 374.570312 2027.925781 374.570312 C 2041.066406 374.570312 2052.988281 367.878906 2059.800781 356.664062 C 2072.621094 335.5625 2059.910156 310.527344 2059.78125 310.277344 C 2059.691406 310.097656 2059.589844 309.917969 2059.5 309.75 C 2057.304688 305.683594 2055.085938 301.589844 2052.878906 297.484375 C 2050.664062 293.382812 2048.445312 289.265625 2046.25 285.203125 C 2026.386719 248.125 2006.226562 210.726562 1988.429688 177.710938 C 1980.898438 163.582031 1973.191406 149.273438 1965.742188 135.429688 C 1961.65625 127.851562 1957.582031 120.28125 1953.507812 112.691406 C 1950.09375 105.125 1945.128906 98.621094 1939 93.730469 C 1938.796875 93.558594 1938.597656 93.398438 1938.398438 93.238281 C 1929.023438 85.671875 1919.496094 84.050781 1913.074219 84.050781 C 1907.253906 84.050781 1901.398438 85.410156 1896.175781 87.96875 C 1889.847656 91.0625 1884.015625 96.175781 1879.941406 102.9375 L 1786.691406 102.9375 C 1786.359375 102.925781 1786.019531 102.925781 1785.691406 102.925781 C 1785.691406 102.925781 1732.285156 102.90625 1732.277344 102.90625 C 1731.816406 102.90625 1731.367188 102.917969 1730.917969 102.9375 L 1712.753906 102.9375 C 1712.234375 102.90625 1711.722656 102.894531 1711.203125 102.894531 L 1604.394531 102.855469 C 1603.613281 102.855469 1602.835938 102.886719 1602.066406 102.9375 L 1585.828125 102.9375 C 1584.988281 102.875 1584.152344 102.847656 1583.3125 102.847656 L 1476.5 102.804688 C 1475.460938 102.804688 1474.445312 102.847656 1473.425781 102.9375 L 1455.890625 102.9375 C 1454.882812 102.847656 1453.863281 102.796875 1452.84375 102.796875 L 1399.738281 102.777344 C 1398.597656 102.777344 1397.480469 102.828125 1396.371094 102.9375 L 1377.886719 102.9375 C 1376.789062 102.828125 1375.679688 102.765625 1374.5625 102.765625 C 1374.5625 102.765625 1321.457031 102.746094 1321.445312 102.746094 C 1320.238281 102.746094 1319.039062 102.804688 1317.863281 102.9375 L 1309.113281 102.9375 C 1307.933594 102.804688 1306.738281 102.746094 1305.539062 102.746094 C 1305.539062 102.746094 1252.730469 102.726562 1252.722656 102.726562 C 1251.445312 102.726562 1250.175781 102.796875 1248.917969 102.9375 L 1228.097656 102.9375 C 1226.816406 102.785156 1225.519531 102.714844 1224.222656 102.714844 C 1224.222656 102.714844 1174.449219 102.695312 1174.441406 102.695312 C 1173.074219 102.695312 1171.714844 102.777344 1170.386719 102.9375 L 1148.855469 102.9375 C 1147.488281 102.765625 1146.109375 102.6875 1144.722656 102.6875 L 1092.523438 102.667969 C 1091.316406 102.667969 1090.117188 102.726562 1088.941406 102.855469 C 1087.769531 102.726562 1086.59375 102.667969 1085.414062 102.667969 C 1085.414062 102.667969 968.585938 102.617188 968.578125 102.617188 C 967.558594 102.617188 966.558594 102.65625 965.5625 102.746094 L 965.511719 102.746094 C 964.523438 102.667969 963.523438 102.617188 962.527344 102.617188 L 845.699219 102.578125 C 844 102.578125 842.332031 102.695312 840.695312 102.9375 L 821.761719 102.9375 C 820.101562 102.695312 818.414062 102.566406 816.726562 102.566406 C 816.726562 102.566406 726.152344 102.527344 726.144531 102.527344 C 724.347656 102.527344 722.570312 102.667969 720.820312 102.9375 L 642.429688 102.9375 C 638.867188 102.648438 635.171875 102.496094 631.347656 102.496094 C 631.347656 102.496094 558.976562 102.46875 558.964844 102.46875 C 557.027344 102.46875 555.121094 102.625 553.265625 102.9375 L 351.125 102.9375 C 325.910156 102.9375 304.511719 116.898438 294.273438 138.507812 C 292.105469 138.136719 289.910156 137.949219 287.671875 137.949219 C 287.5625 137.949219 186.382812 137.957031 186.382812 137.957031 L 185.605469 137.957031 C 180.792969 138.066406 176.109375 139.015625 171.683594 140.785156 C 167.53125 142.429688 163.707031 144.738281 160.3125 147.664062 C 144.363281 147.914062 130.121094 157.660156 123.910156 171.839844 C 121.84375 173.128906 119.90625 174.597656 118.097656 176.234375 C 114.734375 179.300781 111.9375 182.855469 109.789062 186.828125 C 108.800781 188.628906 107.964844 190.496094 107.273438 192.410156 C 99.945312 198.074219 94.550781 206.210938 92.535156 215.691406 C 90.046875 227.324219 92.875 239.257812 100.285156 248.445312 C 107.714844 257.652344 118.796875 262.921875 130.703125 262.921875 L 136.355469 262.921875 C 135.734375 268.214844 136.195312 273.488281 137.730469 278.601562 C 138.011719 279.519531 138.3125 280.429688 138.652344 281.316406 L 125.25 281.316406 C 124.988281 281.316406 124.730469 281.316406 124.46875 281.328125 C 119.867188 281.429688 115.332031 282.316406 111 283.964844 C 110.769531 284.054688 110.539062 284.144531 110.308594 284.234375 C 105.875 286.042969 101.84375 288.566406 98.347656 291.742188 C 94.871094 294.898438 92.015625 298.574219 89.847656 302.667969 C 87.652344 306.804688 86.203125 311.265625 85.542969 315.941406 C 84.753906 321.53125 85.175781 327.113281 86.804688 332.558594 C 88.449219 338.039062 91.207031 342.972656 95 347.226562 C 98.816406 351.519531 103.589844 354.957031 108.863281 357.183594 C 112.535156 358.75 116.371094 359.730469 120.304688 360.109375 C 121.515625 362.046875 122.894531 363.875 124.449219 365.601562 C 128.304688 369.863281 132.910156 373.140625 138.152344 375.347656 C 142.277344 377.105469 146.609375 378.125 151.042969 378.382812 C 152.519531 382.996094 154.949219 387.300781 158.234375 390.996094 C 161.5 394.660156 165.453125 397.558594 169.828125 399.554688 C 170.65625 401.410156 171.574219 403.230469 172.574219 404.996094 C 177.21875 413.195312 183.417969 420.136719 191.027344 425.636719 C 191.066406 425.667969 191.109375 425.699219 191.148438 425.726562 C 196.941406 429.871094 203.320312 433.058594 210.171875 435.214844 C 214.285156 436.503906 218.507812 437.402344 222.792969 437.878906 L 222.8125 437.878906 C 225.339844 438.171875 227.886719 438.308594 230.441406 438.308594 L 230.980469 438.308594 C 233.546875 438.289062 236.09375 438.140625 238.640625 437.851562 L 238.660156 437.851562 L 418.03125 437.480469 "/>
<path fill-rule="nonzero" fill="rgb(85.490417%, 38.430786%, 12.548828%)" fill-opacity="1" d="M 2028.757812 326.378906 C 2024.347656 318.230469 2019.878906 309.917969 2015.472656 301.773438 C 1996.222656 265.84375 1976.921875 230.027344 1957.621094 194.222656 C 1945.839844 172.105469 1933.886719 150.050781 1921.992188 127.886719 C 1920.878906 125.09375 1919.214844 122.550781 1916.914062 120.820312 C 1916.902344 120.8125 1916.890625 120.800781 1916.878906 120.792969 C 1916.804688 120.738281 1916.746094 120.671875 1916.675781 120.621094 C 1916.667969 120.613281 1916.660156 120.609375 1916.648438 120.605469 C 1915.058594 119.257812 1913.273438 118.515625 1911.519531 119.371094 C 1908.722656 120.738281 1908.796875 124.613281 1909.644531 127.933594 C 1909.957031 131.625 1910.269531 135.359375 1910.527344 139.085938 C 1913.054688 172.140625 1915.625 205.109375 1918.164062 238.152344 C 1915.671875 237.234375 1913.1875 236.320312 1910.710938 235.414062 C 1880.183594 224.0625 1849.8125 212.652344 1819.285156 201.3125 C 1811.519531 198.382812 1814.15625 210.628906 1815.777344 213.972656 C 1821.152344 225.03125 1826.464844 235.929688 1831.71875 246.945312 C 1854.671875 294.601562 1877.738281 342.3125 1900.796875 390.019531 C 1915.375 420.039062 1929.773438 450.132812 1944.457031 480.203125 C 1945.832031 483.160156 1949.101562 488.457031 1953.046875 488.34375 C 1956.808594 488.296875 1957.117188 483.714844 1956.554688 480.828125 C 1955.226562 473.589844 1953.730469 466.417969 1952.402344 459.1875 C 1943.046875 411.292969 1933.824219 363.34375 1924.480469 315.449219 C 1927.234375 316.085938 1929.988281 316.714844 1932.765625 317.394531 C 1964.15625 324.8125 1995.597656 332.097656 2026.996094 339.503906 C 2033.304688 340.972656 2029.59375 327.988281 2028.757812 326.378906 "/>
<path fill-rule="nonzero" fill="rgb(85.490417%, 38.430786%, 12.548828%)" fill-opacity="1" d="M 454.429688 365.433594 C 454.179688 367.261719 453.734375 369.035156 453.050781 370.753906 C 449.628906 379.71875 440.71875 386.351562 430.945312 386.351562 C 421.171875 386.351562 413.796875 379.71875 412.441406 370.753906 C 412.148438 368.996094 412.09375 367.222656 412.273438 365.433594 C 413.601562 353.886719 424.117188 344.515625 435.746094 344.515625 C 447.394531 344.515625 455.742188 353.886719 454.429688 365.433594 M 469.023438 347.351562 C 468.101562 345.230469 466.957031 343.203125 465.601562 341.316406 C 463.578125 338.484375 461.148438 336.039062 458.328125 333.988281 C 455.898438 332.242188 453.285156 330.859375 450.492188 329.8125 C 447.058594 330.777344 443.59375 331.570312 440.074219 332.171875 C 432.144531 333.667969 424.644531 335.078125 416.855469 341.933594 C 409.078125 348.789062 405.933594 355.113281 402.625 361.804688 C 400.601562 365.878906 398.519531 370.082031 395.351562 374.285156 C 395.308594 374.34375 395.265625 374.382812 395.210938 374.441406 C 395.464844 376.394531 395.867188 378.320312 396.453125 380.191406 C 397.152344 382.441406 398.074219 384.578125 399.234375 386.628906 C 401.535156 390.707031 404.582031 394.113281 408.378906 396.878906 C 414.007812 400.957031 421.085938 403.359375 429.003906 403.359375 C 432.914062 403.332031 436.753906 402.757812 440.523438 401.65625 C 444.265625 400.566406 447.8125 398.960938 451.109375 396.878906 C 456.261719 393.695312 460.5625 389.632812 464.023438 384.691406 C 464.539062 383.949219 465.042969 383.210938 465.519531 382.425781 C 468.183594 378.167969 470.027344 373.574219 471.035156 368.660156 C 471.242188 367.597656 471.4375 366.523438 471.5625 365.433594 C 472.332031 359.179688 471.480469 353.160156 469.023438 347.351562 M 346.128906 169.457031 C 345.835938 169.230469 345.597656 168.9375 345.402344 168.617188 C 345.222656 168.296875 345.097656 167.945312 345.027344 167.582031 C 344.96875 167.207031 344.96875 166.84375 345.039062 166.480469 L 346.394531 158.160156 C 346.449219 157.808594 346.574219 157.488281 346.742188 157.179688 C 346.925781 156.886719 347.148438 156.621094 347.429688 156.398438 C 347.695312 156.175781 348 156.007812 348.320312 155.882812 C 348.65625 155.785156 349.003906 155.714844 349.355469 155.730469 L 373.988281 156.875 C 372.464844 146.402344 364.042969 138.457031 352.664062 137.925781 C 336.566406 137.183594 325.492188 148.0625 323.242188 162.027344 C 322.921875 164.023438 323.019531 171.6875 323.089844 175.332031 C 323.089844 175.90625 323.242188 176.4375 323.578125 176.925781 C 323.914062 177.414062 324.347656 177.761719 324.890625 177.972656 L 358.515625 191.378906 C 359.226562 191.628906 359.9375 191.644531 360.664062 191.449219 C 361.40625 191.25 362.007812 190.875 362.480469 190.289062 C 365.789062 186.546875 368.472656 182.398438 370.550781 177.863281 L 347.09375 170 C 346.742188 169.875 346.421875 169.691406 346.128906 169.457031 M 238.820312 223.980469 C 237.019531 223.675781 234.335938 223.84375 233.402344 223.339844 C 233.542969 221.972656 233.457031 220.113281 233.277344 218.035156 C 234.15625 217.347656 236.792969 217.714844 238.566406 217.042969 C 244.851562 214.628906 250.101562 209.140625 250.101562 204.992188 C 250.101562 198.484375 241.011719 192.578125 232.492188 193.554688 L 228.878906 193.960938 L 228.554688 218.886719 C 228.359375 232.585938 228.484375 244.507812 228.820312 245.359375 C 229.855469 248.082031 240.703125 247.289062 245.367188 244.132812 C 255.6875 237.148438 252.167969 226.257812 238.820312 223.980469 M 247.660156 250.261719 C 243.246094 252.523438 236.683594 253.488281 220.863281 253.417969 C 222.316406 248.699219 222.089844 213.550781 221.40625 188.835938 C 232.550781 187.929688 226.992188 188.097656 232.398438 188.066406 C 244.113281 187.984375 250.394531 190.511719 254.75 197.003906 C 258.941406 203.273438 257.363281 214.878906 246.152344 219.304688 C 257.125 224.765625 257.992188 229.847656 257.992188 234.734375 C 257.992188 242.050781 255.046875 246.464844 247.660156 250.261719 M 291.449219 175.695312 C 291.28125 175.152344 291 174.648438 290.609375 174.214844 C 290.234375 173.785156 289.773438 173.460938 289.226562 173.226562 C 288.699219 172.988281 288.140625 172.890625 287.566406 172.90625 L 186.386719 172.90625 C 185.773438 172.917969 185.171875 173.027344 184.597656 173.265625 C 184.011719 173.492188 183.496094 173.8125 183.035156 174.214844 C 182.574219 174.636719 182.199219 175.109375 181.902344 175.65625 C 181.609375 176.199219 181.429688 176.785156 181.34375 177.386719 L 180.746094 182.609375 L 160.945312 182.609375 C 158.558594 182.609375 156.183594 184.3125 155.667969 186.671875 C 155.09375 189.382812 156.964844 191.671875 159.644531 191.671875 L 191.160156 191.671875 C 193.5625 191.671875 195.546875 193.390625 195.503906 195.75 C 195.492188 196.40625 195.335938 197.046875 195.070312 197.660156 C 194.804688 198.261719 194.429688 198.792969 193.953125 199.265625 C 193.480469 199.726562 192.921875 200.078125 192.320312 200.34375 C 191.691406 200.59375 191.0625 200.734375 190.394531 200.746094 L 145.011719 200.746094 C 144.382812 200.761719 143.785156 200.886719 143.195312 201.109375 C 142.609375 201.347656 142.082031 201.667969 141.617188 202.085938 C 141.160156 202.507812 140.78125 202.980469 140.488281 203.539062 C 140.179688 204.085938 140 204.671875 139.914062 205.285156 C 139.832031 205.871094 139.886719 206.445312 140.042969 206.988281 C 140.207031 207.546875 140.488281 208.050781 140.878906 208.496094 C 141.285156 208.929688 141.746094 209.265625 142.273438 209.488281 C 142.820312 209.726562 143.390625 209.839844 143.964844 209.824219 L 189.082031 209.824219 C 191.484375 209.824219 193.464844 211.527344 193.425781 213.902344 C 193.410156 214.558594 193.257812 215.199219 192.992188 215.800781 C 192.710938 216.402344 192.347656 216.945312 191.875 217.40625 C 191.398438 217.867188 190.855469 218.230469 190.226562 218.496094 C 189.613281 218.746094 188.984375 218.886719 188.3125 218.902344 L 132 218.902344 C 129.609375 218.902344 127.222656 220.601562 126.71875 222.976562 C 126.132812 225.6875 128.019531 227.976562 130.699219 227.976562 L 187.015625 227.976562 C 189.402344 227.976562 191.386719 229.679688 191.34375 232.054688 C 191.316406 232.710938 191.175781 233.339844 190.910156 233.9375 C 190.628906 234.550781 190.269531 235.082031 189.777344 235.558594 C 189.320312 236.019531 188.773438 236.382812 188.144531 236.648438 C 187.546875 236.898438 186.890625 237.039062 186.21875 237.050781 L 174.503906 237.050781 L 171.082031 266.863281 C 170.996094 267.4375 171.039062 267.996094 171.207031 268.554688 C 171.375 269.113281 171.65625 269.601562 172.046875 270.035156 C 172.421875 270.46875 172.882812 270.800781 173.425781 271.027344 C 173.957031 271.261719 174.515625 271.375 175.089844 271.363281 L 274.453125 271.363281 C 275.320312 271.332031 276.15625 271.164062 276.96875 270.84375 C 277.777344 270.523438 278.503906 270.078125 279.148438 269.503906 C 279.804688 268.933594 280.332031 268.261719 280.722656 267.492188 C 281.144531 266.726562 281.394531 265.929688 281.519531 265.0625 L 291.574219 177.386719 C 291.65625 176.8125 291.617188 176.253906 291.449219 175.695312 M 254.417969 368.03125 C 254.195312 369.734375 253.761719 371.382812 253.117188 372.988281 C 249.933594 381.324219 241.652344 387.511719 232.535156 387.511719 C 223.429688 387.511719 216.5625 381.324219 215.289062 372.988281 C 215.027344 371.339844 214.96875 369.691406 215.136719 368.03125 C 215.152344 367.933594 215.195312 367.863281 215.195312 367.765625 L 254.417969 367.765625 C 254.402344 367.863281 254.417969 367.933594 254.417969 368.03125 M 459.445312 315.75 C 457.9375 314.898438 456.386719 314.144531 454.78125 313.476562 C 454.488281 313.347656 454.195312 313.222656 453.902344 313.097656 C 452.324219 312.46875 450.703125 311.9375 449.070312 311.492188 C 448.746094 311.410156 448.425781 311.339844 448.105469 311.253906 C 446.304688 310.792969 444.488281 310.445312 442.632812 310.207031 C 440.832031 310 439 309.871094 437.171875 309.859375 C 436.808594 309.859375 436.445312 309.84375 436.082031 309.84375 C 434.589844 309.859375 433.082031 309.929688 431.558594 310.066406 C 425.289062 310.710938 419.3125 312.371094 413.644531 315.082031 L 417.414062 310.417969 L 419.089844 308.335938 C 422.566406 304.050781 423.851562 298.574219 422.539062 293.714844 L 408.167969 240.390625 L 420.570312 242.386719 C 423.25 242.820312 425.945312 240.726562 426.265625 238 L 428.949219 214.585938 C 428.988281 214.277344 429.003906 213.972656 428.976562 213.648438 C 428.949219 213.34375 428.863281 213.050781 428.765625 212.742188 C 428.667969 212.449219 428.527344 212.167969 428.347656 211.902344 C 428.179688 211.652344 427.984375 211.402344 427.746094 211.191406 C 427.523438 210.96875 427.273438 210.785156 426.992188 210.632812 C 426.726562 210.480469 426.433594 210.355469 426.125 210.269531 C 425.832031 210.1875 425.511719 210.128906 425.207031 210.117188 C 424.882812 210.101562 424.578125 210.128906 424.269531 210.1875 L 394.777344 214.765625 C 394.136719 214.863281 393.535156 215.074219 392.949219 215.367188 C 392.378906 215.675781 391.859375 216.050781 391.414062 216.527344 C 390.964844 216.988281 390.589844 217.503906 390.308594 218.089844 C 390.03125 218.675781 389.851562 219.277344 389.75 219.917969 L 389.261719 224.234375 C 388.832031 224.136719 388.382812 224.082031 387.9375 224.066406 L 364.898438 223.773438 C 364.140625 223.757812 363.429688 223.578125 362.773438 223.226562 C 362.101562 222.878906 361.558594 222.40625 361.125 221.789062 L 343.15625 196.25 C 333.214844 182.1875 312.980469 186.574219 307.226562 204.335938 L 291.714844 244.859375 C 287.160156 258.863281 294.074219 272.464844 307.003906 276.472656 L 239.921875 276.472656 C 239.222656 276.484375 238.609375 276.722656 238.078125 277.183594 C 237.5625 277.660156 237.242188 278.230469 237.15625 278.929688 L 236.097656 288.1875 C 236.039062 288.507812 236.070312 288.816406 236.167969 289.121094 C 236.265625 289.417969 236.417969 289.695312 236.625 289.933594 C 236.835938 290.171875 237.074219 290.351562 237.378906 290.476562 C 237.675781 290.601562 237.980469 290.660156 238.289062 290.660156 L 331.285156 290.660156 C 331.984375 290.644531 332.597656 290.394531 333.128906 289.933594 C 333.644531 289.472656 333.953125 288.886719 334.050781 288.1875 L 334.890625 280.855469 L 347.359375 282.671875 L 332.25 326.964844 C 330.628906 332.480469 333.644531 337.746094 339.050781 338.847656 C 344.496094 339.949219 350.332031 336.390625 352.132812 330.875 L 370.132812 281.988281 C 373.386719 272.085938 368.082031 262.367188 358.304688 260.386719 C 348.113281 258.289062 335.433594 255.792969 328.828125 254.492188 C 326.371094 254.003906 325.058594 251.5625 325.910156 249.089844 L 335.40625 221.300781 L 345.597656 235.167969 C 349.046875 240.054688 354.816406 242.792969 361.167969 242.570312 L 385.96875 241.226562 C 387.28125 241.171875 388.523438 240.863281 389.695312 240.292969 L 392.921875 289.082031 C 393.117188 292.65625 392.78125 296.175781 391.914062 299.652344 C 391.035156 303.113281 389.667969 306.367188 387.796875 309.425781 L 372.535156 334.796875 C 369.101562 340.507812 362.871094 344.140625 356.476562 344.140625 L 333.074219 344.140625 C 322.992188 344.140625 316.457031 334.980469 319.542969 325.148438 L 329.246094 294.246094 L 240.636719 294.246094 C 239.351562 294.246094 238.175781 294.582031 237.074219 295.210938 C 236.179688 295.726562 234.980469 296.453125 233.542969 297.363281 C 232.773438 297.863281 231.921875 298.117188 231.011719 298.128906 L 193.128906 298.128906 C 192.503906 298.144531 191.902344 298.253906 191.316406 298.492188 C 190.730469 298.714844 190.199219 299.035156 189.738281 299.457031 C 189.261719 299.875 188.886719 300.363281 188.59375 300.910156 C 188.300781 301.453125 188.117188 302.054688 188.035156 302.652344 C 187.949219 303.238281 187.992188 303.8125 188.160156 304.371094 C 188.328125 304.929688 188.605469 305.433594 188.996094 305.867188 C 189.386719 306.296875 189.847656 306.632812 190.394531 306.871094 C 190.9375 307.109375 191.496094 307.207031 192.082031 307.191406 L 235.34375 307.191406 C 235.929688 307.175781 236.503906 307.304688 237.03125 307.527344 C 237.578125 307.765625 238.039062 308.097656 238.429688 308.53125 C 238.820312 308.964844 239.097656 309.46875 239.265625 310.027344 C 239.433594 310.585938 239.476562 311.15625 239.40625 311.730469 C 239.308594 312.359375 239.125 312.929688 238.832031 313.488281 C 238.539062 314.035156 238.164062 314.523438 237.703125 314.925781 C 237.226562 315.359375 236.695312 315.683594 236.125 315.90625 C 235.539062 316.128906 234.9375 316.253906 234.308594 316.269531 L 125.253906 316.269531 C 124.625 316.28125 124.023438 316.40625 123.4375 316.628906 C 122.851562 316.867188 122.320312 317.191406 121.859375 317.609375 C 121.398438 318.027344 121.007812 318.503906 120.714844 319.058594 C 120.421875 319.605469 120.242188 320.191406 120.15625 320.804688 C 120.074219 321.378906 120.113281 321.949219 120.28125 322.507812 C 120.449219 323.070312 120.730469 323.570312 121.121094 324.003906 C 121.511719 324.449219 121.972656 324.785156 122.515625 325.007812 C 123.0625 325.246094 123.621094 325.359375 124.207031 325.34375 L 211.535156 325.34375 C 212.121094 325.332031 212.695312 325.441406 213.238281 325.679688 C 213.769531 325.902344 214.242188 326.238281 214.632812 326.683594 C 215.027344 327.117188 215.304688 327.621094 215.472656 328.179688 C 215.640625 328.738281 215.683594 329.308594 215.597656 329.882812 C 215.515625 330.496094 215.332031 331.082031 215.027344 331.628906 C 214.730469 332.1875 214.355469 332.675781 213.894531 333.078125 C 213.421875 333.5 212.902344 333.820312 212.316406 334.058594 C 211.730469 334.28125 211.128906 334.40625 210.5 334.421875 L 154.492188 334.421875 C 153.878906 334.433594 153.265625 334.5625 152.691406 334.785156 C 152.105469 335.007812 151.574219 335.34375 151.113281 335.761719 C 150.640625 336.167969 150.261719 336.65625 149.96875 337.199219 C 149.675781 337.757812 149.496094 338.34375 149.410156 338.957031 C 149.328125 339.53125 149.367188 340.105469 149.535156 340.664062 C 149.703125 341.21875 149.984375 341.722656 150.375 342.15625 C 150.765625 342.589844 151.226562 342.9375 151.769531 343.160156 C 152.316406 343.398438 152.875 343.511719 153.460938 343.496094 L 191.261719 343.496094 C 187.644531 351.21875 185.339844 359.304688 184.347656 367.765625 L 199.234375 367.765625 C 199.21875 367.847656 199.191406 367.933594 199.175781 368.03125 C 199.066406 369.035156 199.007812 370.042969 198.980469 371.03125 C 198.855469 374.691406 199.332031 378.265625 200.390625 381.769531 C 201.046875 383.863281 201.914062 385.875 202.988281 387.777344 C 205.140625 391.574219 207.972656 394.757812 211.507812 397.3125 C 214.3125 399.324219 217.34375 400.832031 220.625 401.863281 C 223.921875 402.898438 227.273438 403.386719 230.722656 403.359375 C 234.378906 403.332031 237.941406 402.800781 241.445312 401.78125 C 244.949219 400.746094 248.230469 399.269531 251.316406 397.3125 C 256.105469 394.351562 260.113281 390.566406 263.339844 385.960938 C 263.828125 385.277344 264.304688 384.578125 264.75 383.851562 C 267.234375 379.898438 268.9375 375.613281 269.875 371.03125 C 270.070312 370.042969 270.25 369.035156 270.363281 368.03125 C 270.375 367.933594 270.375 367.847656 270.375 367.765625 L 357.273438 367.765625 C 364.953125 367.765625 372.578125 364.386719 378.175781 358.660156 C 378.847656 357.976562 379.488281 357.277344 380.089844 356.539062 L 381.820312 354.402344 C 381.5 355.9375 381.21875 357.488281 381.039062 359.050781 C 380.84375 360.742188 380.730469 362.417969 380.703125 364.109375 C 380.675781 365.519531 380.757812 366.898438 380.855469 368.28125 C 381.148438 372.429688 382 376.464844 383.414062 380.390625 C 385.730469 379.371094 387.8125 377.988281 389.652344 376.253906 C 390.894531 375.125 392.015625 373.894531 393.035156 372.554688 C 393.730469 371.632812 394.34375 370.710938 394.945312 369.789062 C 395.199219 369.398438 395.476562 368.996094 395.714844 368.601562 C 396.664062 367.066406 397.488281 365.519531 398.296875 363.953125 C 399.035156 362.515625 399.75 361.0625 400.488281 359.609375 C 400.976562 358.605469 401.480469 357.597656 402.011719 356.582031 C 402.722656 355.226562 403.476562 353.859375 404.300781 352.488281 C 407.164062 347.6875 410.710938 343.457031 414.929688 339.78125 C 425.175781 330.761719 434.8125 330.511719 445.019531 328.25 C 448.121094 327.605469 451.136719 326.699219 454.082031 325.527344 C 455.003906 325.148438 455.855469 324.773438 456.636719 324.394531 C 458.007812 323.738281 459.332031 323 460.601562 322.1875 C 461.132812 321.839844 461.609375 321.503906 462.011719 321.195312 C 462.65625 320.734375 463.253906 320.246094 463.84375 319.71875 C 464.234375 319.355469 464.414062 319.144531 464.414062 319.144531 C 462.835938 317.886719 461.191406 316.757812 459.445312 315.75 "/>
<path fill-rule="nonzero" fill="rgb(100%, 80.000305%, 16.078186%)" fill-opacity="1" d="M 588.125 236.171875 L 599.046875 236.175781 C 604.003906 236.179688 607.628906 234.292969 609.925781 230.519531 C 612.222656 226.746094 613.984375 222.234375 615.210938 216.96875 L 621.359375 190.609375 C 623.328125 182.175781 620.519531 177.949219 612.933594 177.949219 L 601.707031 177.941406 Z M 566.09375 353.371094 C 579.953125 353.375 588.386719 346.925781 591.398438 334.019531 L 599.039062 301.253906 C 600.777344 293.808594 601.007812 287.929688 599.742188 283.609375 C 598.472656 279.289062 594.703125 277.128906 588.433594 277.125 L 578.570312 277.121094 L 560.855469 353.070312 C 563.035156 353.269531 564.78125 353.371094 566.09375 353.371094 M 497.828125 399.515625 L 558.96875 137.421875 L 631.332031 137.449219 C 650.75 137.453125 663.800781 142.101562 670.484375 151.386719 C 677.167969 160.671875 678.023438 175.988281 673.042969 197.332031 L 670.367188 208.800781 C 667.496094 221.109375 662.921875 231.085938 656.636719 238.726562 C 650.351562 246.375 642.332031 251.382812 632.570312 253.761719 C 643.914062 256.742188 650.351562 263.722656 651.886719 274.695312 C 653.425781 285.664062 652.351562 299.042969 648.671875 314.828125 C 644.710938 331.804688 639.628906 346.644531 633.429688 359.351562 C 627.226562 372.058594 619.058594 381.9375 608.917969 388.980469 C 598.777344 396.027344 585.871094 399.546875 570.195312 399.542969 Z M 497.828125 399.515625 "/>
<path fill-rule="nonzero" fill="rgb(100%, 80.000305%, 16.078186%)" fill-opacity="1" d="M 717.863281 315.449219 L 742.136719 315.457031 L 761.542969 182.171875 L 759.113281 182.171875 Z M 639.21875 399.566406 L 726.148438 137.480469 L 816.714844 137.515625 L 780.917969 399.621094 L 730.398438 399.601562 L 736.472656 357.304688 L 704.308594 357.292969 L 691.105469 399.585938 Z M 639.21875 399.566406 "/>
<path fill-rule="nonzero" fill="rgb(100%, 80.000305%, 16.078186%)" fill-opacity="1" d="M 816.265625 399.632812 L 865.664062 187.871094 L 833.957031 187.859375 L 845.695312 137.527344 L 962.511719 137.570312 L 950.769531 187.902344 L 919.0625 187.886719 L 869.667969 399.652344 Z M 816.265625 399.632812 "/>
<path fill-rule="nonzero" fill="rgb(100%, 80.000305%, 16.078186%)" fill-opacity="1" d="M 939.148438 399.679688 L 988.546875 187.914062 L 956.839844 187.902344 L 968.578125 137.570312 L 1085.398438 137.613281 L 1073.65625 187.945312 L 1041.949219 187.933594 L 992.550781 399.699219 Z M 939.148438 399.679688 "/>
<path fill-rule="nonzero" fill="rgb(100%, 80.000305%, 16.078186%)" fill-opacity="1" d="M 1060.058594 399.722656 L 1092.523438 137.617188 L 1144.714844 137.636719 L 1120.835938 303.089844 L 1174.445312 137.648438 L 1224.207031 137.667969 L 1199.875 303.117188 L 1252.726562 137.675781 L 1305.519531 137.695312 L 1215.257812 399.78125 L 1151.234375 399.757812 L 1167.308594 273.617188 L 1125.140625 399.746094 Z M 1060.058594 399.722656 "/>
<path fill-rule="nonzero" fill="rgb(100%, 80.000305%, 16.078186%)" fill-opacity="1" d="M 1260.3125 399.796875 L 1321.449219 137.703125 L 1374.546875 137.722656 L 1352.699219 231.390625 L 1377.886719 231.398438 L 1399.734375 137.730469 L 1452.828125 137.75 L 1391.691406 399.84375 L 1338.597656 399.824219 L 1366.316406 280.988281 L 1341.132812 280.980469 L 1313.410156 399.816406 Z M 1260.3125 399.796875 "/>
<path fill-rule="nonzero" fill="rgb(100%, 80.000305%, 16.078186%)" fill-opacity="1" d="M 1415.359375 399.855469 L 1476.496094 137.761719 L 1583.296875 137.800781 L 1571.488281 188.429688 L 1519 188.410156 L 1507.082031 239.488281 L 1557.449219 239.503906 L 1545.953125 288.800781 L 1495.585938 288.78125 L 1481.585938 348.796875 L 1537.566406 348.816406 L 1525.652344 399.894531 Z M 1415.359375 399.855469 "/>
<path fill-rule="nonzero" fill="rgb(100%, 80.000305%, 16.078186%)" fill-opacity="1" d="M 1543.253906 399.898438 L 1604.390625 137.804688 L 1711.191406 137.847656 L 1699.382812 188.476562 L 1646.890625 188.457031 L 1634.976562 239.535156 L 1685.339844 239.554688 L 1673.84375 288.847656 L 1623.476562 288.828125 L 1609.476562 348.84375 L 1665.457031 348.863281 L 1653.542969 399.941406 Z M 1543.253906 399.898438 "/>
<path fill-rule="nonzero" fill="rgb(100%, 80.000305%, 16.078186%)" fill-opacity="1" d="M 1671.140625 399.949219 L 1732.28125 137.855469 L 1785.679688 137.871094 L 1734.964844 355.292969 L 1789.882812 355.3125 L 1779.460938 399.988281 Z M 1671.140625 399.949219 "/>
</svg>
